<svg width="66" height="64" viewBox="0 0 66 64" fill="none" xmlns="http://www.w3.org/2000/svg">
<path d="M43.32 50.8826H63.5961M53.4581 41.12V60.6452" stroke="black" stroke-opacity="0.2" stroke-width="4" stroke-linecap="round" stroke-linejoin="round"/>
<path d="M43.32 50.8826H63.5961M53.4581 41.12V60.6452" stroke="#3BC25A" stroke-width="4" stroke-linecap="round" stroke-linejoin="round"/>
<path d="M40.375 19.125V37.825C40.375 40.2052 40.375 41.3954 39.9118 42.3045C39.5044 43.1041 38.8541 43.7544 38.0545 44.1617C37.1454 44.625 35.9552 44.625 33.575 44.625H17.425C15.0448 44.625 13.8547 44.625 12.9455 44.1617C12.1458 43.7544 11.4957 43.1041 11.0882 42.3045C10.625 41.3954 10.625 40.2052 10.625 37.825V13.175C10.625 10.7948 10.625 9.60466 11.0882 8.69554C11.4957 7.89584 12.1458 7.24568 12.9455 6.83823C13.8547 6.375 15.0448 6.375 17.425 6.375H27.625M40.375 19.125L27.625 6.375M40.375 19.125H29.75C28.5764 19.125 27.625 18.1736 27.625 17V6.375" stroke="#3BC25A" stroke-width="5.33333" stroke-linecap="round" stroke-linejoin="round"/>
</svg>
