<svg width="64" height="64" viewBox="0 0 64 64" fill="none" xmlns="http://www.w3.org/2000/svg">
<g clip-path="url(#clip0_1_2)">
<path d="M37.026 26.8541H42.8912C42.9935 26.8563 43.0953 26.8379 43.1903 26.7997C43.2853 26.7616 43.3716 26.7046 43.444 26.6322C43.5164 26.5599 43.5733 26.4736 43.6115 26.3785C43.6496 26.2835 43.6681 26.1818 43.6658 26.0794C43.6713 25.9767 43.6544 25.8739 43.6162 25.7784C43.5779 25.6828 43.5194 25.5967 43.4445 25.5261L36.1407 18.2223C36.0701 18.1475 35.984 18.0889 35.8885 18.0507C35.7929 18.0124 35.6902 17.9955 35.5874 18.001C35.485 17.9988 35.3833 18.0172 35.2883 18.0554C35.1933 18.0935 35.107 18.1505 35.0346 18.2229C34.9622 18.2953 34.9052 18.3816 34.8671 18.4766C34.829 18.5716 34.8105 18.6733 34.8127 18.7757V24.6408C34.8127 25.2278 35.0459 25.7908 35.461 26.2058C35.8761 26.6209 36.439 26.8541 37.026 26.8541Z" fill="white"/>
<path d="M42.5592 30.1741H34.8128C33.9323 30.1741 33.0878 29.8244 32.4652 29.2018C31.8426 28.5792 31.4929 27.7347 31.4929 26.8542V19.1078C31.4929 18.8143 31.3763 18.5328 31.1687 18.3253C30.9612 18.1178 30.6797 18.0012 30.3862 18.0012H19.3199C18.4394 18.0012 17.595 18.3509 16.9724 18.9735C16.3498 19.5962 16 20.4406 16 21.3211V47.8802C16 48.7607 16.3498 49.6052 16.9724 50.2278C17.595 50.8504 18.4394 51.2001 19.3199 51.2001H40.3459C41.2264 51.2001 42.0708 50.8504 42.6934 50.2278C43.316 49.6052 43.6658 48.7607 43.6658 47.8802V31.2808C43.6658 30.9873 43.5492 30.7058 43.3417 30.4983C43.1342 30.2907 42.8527 30.1741 42.5592 30.1741ZM20.4265 29.0675C20.4265 28.774 20.5431 28.4925 20.7507 28.285C20.9582 28.0775 21.2397 27.9609 21.5332 27.9609H26.0593C26.3528 27.9609 26.6343 28.0775 26.8418 28.285C27.0493 28.4925 27.1659 28.774 27.1659 29.0675V30.1741C27.1659 30.4676 27.0493 30.7491 26.8418 30.9566C26.6343 31.1642 26.3528 31.2808 26.0593 31.2808H21.5332C21.3866 31.2854 21.2406 31.2599 21.1043 31.2059C20.9679 31.1519 20.8441 31.0706 20.7404 30.9669C20.6367 30.8632 20.5554 30.7394 20.5014 30.603C20.4474 30.4667 20.4219 30.3207 20.4265 30.1741V29.0675ZM37.026 43.4537C37.026 43.7472 36.9094 44.0287 36.7019 44.2362C36.4944 44.4438 36.2129 44.5604 35.9194 44.5604H21.5332C21.2397 44.5604 20.9582 44.4438 20.7507 44.2362C20.5431 44.0287 20.4265 43.7472 20.4265 43.4537V42.3471C20.4265 42.0536 20.5431 41.7721 20.7507 41.5646C20.9582 41.357 21.2397 41.2405 21.5332 41.2405H35.9194C36.2129 41.2405 36.4944 41.357 36.7019 41.5646C36.9094 41.7721 37.026 42.0536 37.026 42.3471V43.4537ZM39.2393 36.8139C39.2393 37.1074 39.1227 37.3889 38.9152 37.5964C38.7076 37.804 38.4261 37.9206 38.1326 37.9206H21.5332C21.2397 37.9206 20.9582 37.804 20.7507 37.5964C20.5431 37.3889 20.4265 37.1074 20.4265 36.8139V35.7073C20.4265 35.4138 20.5431 35.1323 20.7507 34.9248C20.9582 34.7173 21.2397 34.6007 21.5332 34.6007H38.1326C38.4261 34.6007 38.7076 34.7173 38.9152 34.9248C39.1227 35.1323 39.2393 35.4138 39.2393 35.7073V36.8139Z" fill="white"/>
<path d="M40.6154 54H55.3846M48 46.6154V61.3846" stroke="black" stroke-opacity="0.2" stroke-width="2.8" stroke-linecap="round" stroke-linejoin="round"/>
<path d="M40.6154 54H55.3846M48 46.6154V61.3846" stroke="white" stroke-width="2.8" stroke-linecap="round" stroke-linejoin="round"/>
</g>
<defs>
<clipPath id="clip0_1_2">
<rect width="64" height="64" fill="white"/>
</clipPath>
</defs>
</svg>
