<svg width="64" height="64" viewBox="0 0 64 64" fill="none" xmlns="http://www.w3.org/2000/svg">
<path d="M51.3481 23.037L34.963 6.65185C34.5467 6.23499 33.9816 6.00053 33.3926 6H20.1481C17.9871 6 15.9146 6.85846 14.3865 8.38655C12.8585 9.91461 12 11.9871 12 14.1481V49.7037C12 51.8646 12.8585 53.9372 14.3865 55.4652C15.9146 56.9935 17.9871 57.8519 20.1481 57.8519H43.8519C46.0127 57.8519 48.0853 56.9935 49.6133 55.4652C51.1416 53.9372 52 51.8646 52 49.7037V24.5185C51.9766 23.9603 51.744 23.4314 51.3481 23.037ZM35.7037 13.5852L44.4148 22.2963H35.7037V13.5852ZM43.8519 53.4074H20.1481C19.1659 53.4074 18.2238 53.0172 17.5292 52.3227C16.8347 51.6281 16.4444 50.6859 16.4444 49.7037V14.1481C16.4444 13.1659 16.8347 12.2238 17.5292 11.5292C18.2238 10.8347 19.1659 10.4444 20.1481 10.4444H31.2593V24.5185C31.267 25.1055 31.5034 25.6663 31.9185 26.0815C32.3336 26.4966 32.8945 26.733 33.4815 26.7407H47.5556V49.7037C47.5556 50.6859 47.1653 51.6281 46.4708 52.3227C45.7763 53.0172 44.8341 53.4074 43.8519 53.4074Z" fill="#DC2929"/>
<path d="M36.4148 40.3703C34.5929 39.2272 33.2219 37.4898 32.5334 35.4518C33.1713 33.5458 33.3639 31.5185 33.0963 29.5259C33.011 29.024 32.7662 28.5629 32.3982 28.2109C32.0302 27.8589 31.5588 27.6349 31.0536 27.5718C30.5485 27.5087 30.0362 27.6098 29.5929 27.8604C29.1496 28.1111 28.7991 28.4978 28.5926 28.9629C28.2554 31.3585 28.5096 33.8 29.3333 36.0741C28.208 38.7031 26.952 41.2743 25.5704 43.7778C23.4667 44.9629 20.5926 46.7407 20.1482 48.7852C19.7926 50.4444 22.9037 54.7111 28.2074 45.4666C30.5656 44.5914 32.9813 43.8785 35.4371 43.3333C37.2525 44.3712 39.2773 44.989 41.363 45.1407C41.8418 45.1532 42.3138 45.024 42.7194 44.7689C43.1248 44.5138 43.4459 44.1446 43.6421 43.7078C43.8385 43.2708 43.9013 42.7855 43.8225 42.3129C43.744 41.8406 43.5274 41.4018 43.2 41.0518C41.9556 39.7778 38.2519 40.1333 36.4148 40.3703ZM22.2519 49.2592C23.0822 47.8385 24.1788 46.5911 25.4815 45.5852C23.4667 48.7852 22.2519 49.3481 22.2519 49.2889V49.2592ZM30.9037 29.0815C31.6741 29.0815 31.6148 32.4889 31.0815 33.4074C30.6797 32.0103 30.6187 30.5369 30.9037 29.1111V29.0815ZM28.3259 43.5407C29.3298 41.7093 30.2012 39.808 30.9333 37.8518C31.7182 39.3126 32.8101 40.5863 34.1334 41.5852C32.1455 42.0832 30.2027 42.7472 28.3259 43.5703V43.5407ZM42.2519 43.0074C42.2519 43.0074 41.7185 43.6592 38.3111 42.1778C42.0148 41.9407 42.6371 42.8 42.2519 43.037V43.0074Z" fill="#DC2929"/>
</svg>
