<svg width="64" height="64" viewBox="0 0 64 64" fill="none" xmlns="http://www.w3.org/2000/svg">
<path d="M50.6666 24V47.4667C50.6666 50.4536 50.6666 51.9472 50.0853 53.088C49.5741 54.0915 48.7581 54.9075 47.7546 55.4187C46.6138 56 45.1202 56 42.1333 56H21.8666C18.8797 56 17.3862 56 16.2454 55.4187C15.2418 54.9075 14.4259 54.0915 13.9146 53.088C13.3333 51.9472 13.3333 50.4536 13.3333 47.4667V16.5333C13.3333 13.5464 13.3333 12.0529 13.9146 10.9121C14.4259 9.90851 15.2418 9.09261 16.2454 8.58131C17.3862 8 18.8797 8 21.8666 8H34.6666M50.6666 24L34.6666 8M50.6666 24H37.3333C35.8605 24 34.6666 22.8061 34.6666 21.3333V8" stroke="white" stroke-width="5.33333" stroke-linecap="round" stroke-linejoin="round"/>
<path fill-rule="evenodd" clip-rule="evenodd" d="M37.7955 30.8399C38.4624 30.8423 39.0024 31.3821 39 32.0457L38.9142 47.6028C38.9106 48.93 37.8257 50.0036 36.4906 50L24.4091 49.9723C23.0753 49.9687 21.9964 48.8892 22 47.562L22.0967 28.3983C22.1003 27.0699 23.1852 25.9964 24.519 26L31.768 26.018C33.103 26.0216 34.1818 27.1012 34.1782 28.4284L34.0949 42.7834C34.0912 44.1118 33.0063 45.1853 31.6725 45.1817L29.2562 45.1745C27.9212 45.1709 26.8423 44.0913 26.8459 42.7629L26.9184 32.0144C26.9208 31.3508 27.4633 30.8147 28.1302 30.8159C28.7971 30.8183 29.3372 31.3581 29.3347 32.0217L29.2659 41.568C29.2647 42.2316 29.8035 42.7714 30.4704 42.7738C31.1385 42.775 31.681 42.2388 31.6822 41.5752L31.7583 29.6245C31.7595 28.9609 31.2207 28.42 30.5525 28.4188L25.7211 28.4079C25.053 28.4067 24.5106 28.9429 24.5094 29.6065L24.42 46.361C24.4175 47.0282 24.96 47.5704 25.6293 47.5716L35.2849 47.5921C35.9542 47.5945 36.4991 47.0547 36.5015 46.3887L36.5837 32.0385C36.5861 31.3749 37.1286 30.8375 37.7955 30.8399Z" fill="white"/>
</svg>
