<?xml version="1.0" encoding="UTF-8"?><svg id="Layer_2" xmlns="http://www.w3.org/2000/svg" viewBox="0 0 47.5201 47.6155"><g id="Components"><g id="_177509e7-c6be-492f-b71b-6a7df8e68c48_19"><path d="m22.8408,1.9339C10.2292,1.9339,0,12.1632,0,24.7747s10.2292,22.8408,22.8408,22.8408,22.8467-10.2234,22.8467-22.8408S35.4582,1.9339,22.8408,1.9339Zm0,39.8052c-9.3645,0-16.9644-7.594-16.9644-16.9644S13.4763,7.8102,22.8408,7.8102c9.3705,0,16.9703,7.5941,16.9703,16.9645s-7.5999,16.9644-16.9703,16.9644Z" style="fill:#0b4247;"/><path d="m21.141,30.95l-7.3551-6.4331c-1.2227-1.0695-1.3469-2.9276-.2775-4.1503h0c1.0695-1.2227,2.9276-1.3469,4.1503-.2775l7.3551,6.4332-3.8729,4.4278Z" style="fill:#0b4247;"/><path d="m22.9918,32.5246l-4.4576-3.8372L42.3504,1.0222c1.0596-1.2309,2.9165-1.3697,4.1474-.3101h0c1.231,1.0597,1.3698,2.9166.3101,4.1475l-23.8161,27.665Z" style="fill:#8aa584;"/></g></g></svg>